<?xml version="1.0"?>
<svg width="112" height="118" xmlns="http://www.w3.org/2000/svg" xmlns:xlink="http://www.w3.org/1999/xlink">
 <symbol viewBox="-331.95 -74.35 654.8 142.172" id="Symbol_2">
  <g id="Layer_4_1_">
   <path d="m-331.950012,57.299999l11.899994,1.100002c4.867004,-1 14.899994,1.716999 30.100006,8.150002c54.966995,2.566994 106.966995,1.25 156,-3.950005c30.034004,-2.599998 54.133003,-6.299999 72.300003,-11.099998c18.132999,-4.799999 37.167,-7.799999 57.099999,-9v-12c-18.699999,0.1 -29.417,-1.382999 -32.149998,-4.450001l-12.800003,-58.399998l-8.149998,-3l6.099998,44.599998c4.900002,21.233 -3.049999,32.716991 -23.849998,34.450001c-73.199997,9.533001 -143.317001,13.5 -210.350021,11.899998c-10.299988,-0.899998 -15.733002,-6.982998 -16.299988,-18.25l8,-58.849998l-8,3.299999c-3.200012,21.333001 -12.016998,34.233002 -26.450012,38.700001l-3.449982,36.799999z" clip-rule="evenodd" fill-rule="evenodd"/>
  </g>
  <g id="Layer_3_1_">
   <path d="m66.300003,43.700001c-20.800003,-1.733002 -28.750004,-13.217001 -23.850002,-34.450001l6.099998,-44.599998l-8.149998,3l-12.800001,58.399998c-2.733,3.067001 -13.450001,4.550001 -32.150001,4.450001v12c19.933001,1.200001 38.966001,4.200001 57.099999,9c18.167004,4.799999 42.267002,8.5 72.299992,11.099998c49.033005,5.200005 101.033005,6.516998 156.000015,3.950005c15.199982,-6.433002 25.233002,-9.150002 30.100006,-8.150002l11.899994,-1.100002l-3.450012,-36.799999c-14.432983,-4.466999 -23.25,-17.367 -26.449982,-38.700001l-8,-3.299999l8,58.849998c-0.567017,11.267002 -6,17.350002 -16.300018,18.25c-67.03299,1.600002 -137.149994,-2.366997 -210.349991,-11.899998z" clip-rule="evenodd" fill-rule="evenodd"/>
  </g>
  <g id="Layer_2_2_">
   <path d="m-298.049988,-19.85l6.149994,-26.9c0.367004,-3.299999 2.700012,-5.617001 7,-6.950001c17.399994,-4.700001 34.182999,-8.482998 50.350006,-11.350002c39,-5.399994 77.382996,-8.333 115.150002,-8.799995c17.832993,0.966995 34.266998,3.632996 49.299995,8c4.099998,1.266998 7.033001,4.532997 8.799999,9.799999l5.800003,23.349998" stroke-miterlimit="3" stroke-linejoin="round" stroke-linecap="round" stroke="#000000" fill="none" clip-rule="evenodd" fill-rule="evenodd"/>
  </g>
  <g id="Layer_1_2_">
   <path d="m288.950012,-19.85l-6.149994,-26.9c-0.367004,-3.299999 -2.700012,-5.617001 -7,-6.950001c-17.399994,-4.700001 -34.183014,-8.482998 -50.350006,-11.350002c-39,-5.399994 -77.382996,-8.333 -115.150002,-8.799995c-17.833,0.966995 -34.266998,3.632996 -49.299999,8c-4.100002,1.266998 -7.033001,4.532997 -8.800003,9.799999l-5.800007,23.349998" stroke-miterlimit="3" stroke-linejoin="round" stroke-linecap="round" stroke="#000000" fill="none" clip-rule="evenodd" fill-rule="evenodd"/>
  </g>
 </symbol>
 <g>
  <title>Layer 1</title>
  <use fill="#2077b2" transform="matrix(0.17022, 0, 0, -0.17022, 60.7471, 15.6853)" y="-325.79586" x="-355.288049" height="142.172" width="654.8" xlink:href="#Symbol_2"/>
 </g>
</svg>